Simulation
nRows=38
nColumns=15
endheader
time  TH_x TH_y TH_z SC_y  SC_z  SC_x  AC_y  AC_z  AC_x  GH_y  GH_z  GH_yy  EL_x  PS_y
0.0  0.000000  0.000000  0.000000  -29.686064766911493  -0.3456024110624557  2.204595401135742  52.70393289468896  5.770035935977123  -9.538670776715012  118.70084075756314  3.0715669904992833  -90.20113206070769  22.806644762076896  0.000000
0.03099999999999998  0.000000  0.000000  0.000000  -29.660112117616997  -0.3994774159604213  3.143248467702451  52.64768254250248  5.181576604994237  -10.266480249585799  108.56826066855156  3.239601215356739  -80.17858078646516  22.765829724116415  0.000000
0.06199999999999996  0.000000  0.000000  0.000000  -29.618723114935023  -0.46887793137282824  4.035834603311934  52.59384859411134  4.576047049428492  -10.979922500375848  100.20018390714068  3.494767076650357  -71.91883260327808  22.72032334119247  0.000000
0.09299999999999994  0.000000  0.000000  0.000000  -29.57940198301457  -0.5521230816064261  4.872852030444453  52.54146043425598  3.9669545880006307  -11.664832697290795  93.4334439889722  3.8158508907579263  -65.2779534871514  22.656361074588713  0.000000
0.12399999999999992  0.000000  0.000000  0.000000  -29.545217699739034  -0.6431101834113305  5.647632426890462  52.49225460433225  3.36743120512519  -12.310593006141714  87.94504262032865  4.188927084004836  -59.94851265658506  22.564743620205025  0.000000
0.1549999999999999  0.000000  0.000000  0.000000  -29.52841309523076  -0.7350808438968998  6.3554925277372805  52.44603847153142  2.7895173784173117  -12.907714039148507  83.36585621962605  4.610241252081959  -55.579739108483395  22.44216348482287  0.000000
0.1859999999999999  0.000000  0.000000  0.000000  -29.53320977452064  -0.821693231970353  6.994159966730722  52.40219558837247  2.2437615684912933  -13.449648782787468  79.4051828873623  5.080332170387145  -51.8973777722054  22.2887586065277  0.000000
0.21699999999999986  0.000000  0.000000  0.000000  -29.56214536581964  -0.8985693471057288  7.563285239639001  52.36103930631273  1.7383599751634606  -13.932316944251323  75.83854635014193  5.602184983418427  -48.688948872051164  22.10971812936857  0.000000
0.24799999999999983  0.000000  0.000000  0.000000  -29.61361526203579  -0.96287634449991  8.064398262164689  52.32188487119898  1.278876255700722  -14.35467487731489  72.52919499806626  6.180682964043189  -45.82752676057086  21.91305952251189  0.000000
0.2789999999999998  0.000000  0.000000  0.000000  -29.683201526132045  -1.0132666376900916  8.500691023169809  52.28545686378011  0.8679822486407848  -14.71790623121893  69.39226681127558  6.821973072134535  -43.23263326643895  21.709635243044033  0.000000
0.3099999999999998  0.000000  0.000000  0.000000  -29.765403394591022  -1.049202461212837  8.876490994601728  52.252970049925466  0.5057720210178137  -15.023136504249157  66.37875619242426  7.532595040767599  -40.856113622620846  21.513747046894245  0.000000
0.34099999999999975  0.000000  0.000000  0.000000  -29.855045341549534  -1.0711332300124605  9.196264730093525  52.22720856416906  0.19003316373542523  -15.269967652285104  63.4535254133552  8.318903831192708  -38.65977062802814  21.341261887358822  0.000000
0.3719999999999998  0.000000  0.000000  0.000000  -29.948184017766557  -1.0806618046019625  9.463044592597912  52.21179324993933  -0.08207434139917295  -15.456611926736509  60.59084647692509  9.18688333012946  -36.61194795778505  21.207944522113923  0.000000
0.40299999999999975  0.000000  0.000000  0.000000  -30.042140519721716  -1.0795372846889295  9.67733693512636  52.210713274994376  -0.31315154189901584  -15.579763866826365  57.773324222678944  10.142013395996104  -34.68591189321258  21.126323298452974  0.000000
0.4339999999999997  0.000000  0.000000  0.000000  -30.134815833069705  -1.0687576224827031  9.837152388885942  52.22759327078345  -0.5048779092415246  -15.635205634253772  54.99315460636013  11.188774546965973  -32.859972768316474  21.10230685122845  0.000000
0.4649999999999997  0.000000  0.000000  0.000000  -30.224394890005303  -1.0479084923604622  9.93914911755258  52.26473052021322  -0.6576927231820584  -15.619527402901133  52.2553641083588  12.330680321905156  -31.12046191033006  21.13248814440374  0.000000
0.49599999999999966  0.000000  0.000000  0.000000  -30.30982114575418  -1.0148518991142328  9.979793084678413  52.32304917448402  -0.7703303947848013  -15.531383314768068  49.57914214280196  13.570882926328448  -29.463834746000728  21.204183317098874  0.000000
0.5269999999999997  0.000000  0.000000  0.000000  -30.39153292341238  -0.9658293328337227  9.95649617571315  52.40198829493535  -0.839816707258899  -15.370907147472717  46.99512619216998  14.911985149747366  -27.896813539534666  21.299051722435802  0.000000
0.5579999999999996  0.000000  0.000000  0.000000  -30.472527768531886  -0.8965566564613937  9.869858271836115  52.500066238302246  -0.8627615871359614  -15.139816155266487  44.53905825300708  16.355138816450836  -26.433591453328695  21.398093567678142  0.000000
0.5889999999999996  0.000000  0.000000  0.000000  -30.557665218087944  -0.8040134022278161  9.725330123366701  52.61506318148467  -0.8358055429678474  -14.843098815587515  42.24740090853254  17.8989525231182  -25.09470477733008  21.48528867554741  0.000000
0.6199999999999996  0.000000  0.000000  0.000000  -30.651399773343513  -0.6871557658117192  9.533690955130023  52.744742473983614  -0.7560801956203612  -14.489408186030712  40.14883388273387  19.538002154262514  -23.900040533179432  21.549910198298182  0.000000
0.6509999999999996  0.000000  0.000000  0.000000  -30.75610917366706  -0.5461044541207491  9.310652727342807  52.88752666427689  -0.6219173976482509  -14.090372862734506  38.25856049730281  21.2618235073434  -22.862851352278852  21.587828165320932  0.000000
0.6819999999999995  0.000000  0.000000  0.000000  -30.87040438499492  -0.382036625140412  9.075893684769127  53.04235548531771  -0.43309237052099087  -13.659794904670713  36.575544917897076  23.05452130611152  -21.98592490471592  21.60035155769789  0.000000
0.7129999999999995  0.000000  0.000000  0.000000  -30.987189407708883  -0.1978318854106569  8.85206481459659  53.20934598434747  -0.1906870288104686  -13.21289958254721  35.08301352628589  24.89463348923779  -21.26098553263643  21.590238777605443  0.000000
0.7439999999999996  0.000000  0.000000  0.000000  -31.094344057643596  0.002524462397590416  8.663068803926746  53.38984479580972  0.10286470282753972  -12.764731622256793  33.75499923982819  26.756061086854565  -20.673209653615334  21.559533415651398  0.000000
0.7749999999999995  0.000000  0.000000  0.000000  -31.178210098230554  0.2152003049627944  8.53305275586403  53.585533443944364  0.4428338724968306  -12.328501644605701  32.564258816398784  28.60937502794206  -20.20649048135189  21.51052927878915  0.000000
0.8059999999999995  0.000000  0.000000  0.000000  -31.22636299462412  0.4371641377477534  8.485055463754692  53.79763677739563  0.821384920337785  -11.915423048080363  31.487305284194633  30.42419775241948  -19.84642433583164  21.444037971065956  0.000000
0.8369999999999994  0.000000  0.000000  0.000000  -31.230058047821718  0.6660177714403773  8.53790898270339  54.025596246159644  1.228473281831779  -11.534852420399115  30.50605881842036  32.17228438165303  -19.58130333603531  21.358070692938533  0.000000
0.8679999999999994  0.000000  0.000000  0.000000  -31.186331648704154  0.8998336532065392  8.703725220827852  54.26599215497499  1.6524932272813222  -11.193924688013643  29.6071063013999  33.83088362485469  -19.40122784994124  21.249327384370215  0.000000
0.8989999999999994  0.000000  0.000000  0.000000  -31.09884730790784  1.1374591054909788  8.986724965267857  54.513168616411775  2.0808899825812204  -10.896607801422807  28.78111811539017  35.38548508464795  -19.297622296387928  21.11436502378089  0.000000
0.9299999999999994  0.000000  0.000000  0.000000  -30.977499704092885  1.378617975282563  9.383003604810943  54.76048980626451  2.5016202161702683  -10.642937332076018  28.02227680696539  36.831356055556455  -19.263119481921283  20.951365540014255  0.000000
0.9609999999999993  0.000000  0.000000  0.000000  -30.83680911008191  1.6238810164533768  9.881819725087237  55.00197993497918  2.904779393679131  -10.428744217494982  27.32672971289956  38.17284584367805  -19.29052308913633  20.760053467402216  0.000000
0.9919999999999993  0.000000  0.000000  0.000000  -30.693638676417244  1.8746320102473115  10.467115927093335  55.23324352429048  3.284133047512567  -10.24586478306979  26.690840533018015  39.42124987018916  -19.371921905842733  20.54127948087506  0.000000
1.0229999999999992  0.000000  0.000000  0.000000  -30.565293200355818  2.1329174060922287  11.119335763005042  55.4522131491522  3.6376670512761846  -10.082578849102001  26.109361662417417  40.59204374603107  -19.497447849562693  20.297893855522698  0.000000
1.0539999999999994  0.000000  0.000000  0.000000  -30.467244884758088  2.400989309629122  11.817623860643112  55.659693677705754  3.9669329665103774  -9.924445958366634  25.57341238140981  41.702270378711816  -19.653389995865034  20.034838046977576  0.000000
1.0849999999999993  0.000000  0.000000  0.000000  -30.41122093876695  2.6804669177921476  12.54148207264002  55.85921826441509  4.2763640897973065  -9.755784279135238  25.068616705429967  42.76832025789337  -19.820827552315148  19.759664508125592  0.000000
1.1159999999999992  0.000000  0.000000  0.000000  -30.404514849745063  2.9717971861574504  13.271634859535492  56.056343966842675  4.572651973294043  -9.561043955622399  24.57528784966892  43.80449210698847  -19.975961870525804  19.482513045849803  0.000000
1.1469999999999991  0.000000  0.000000  0.000000  -30.450368393319632  3.2743782634193748  13.990620615328174  56.25728625398575  4.863755014211911  -9.326123043962468  24.071779335445765  44.822339987946336  -20.093585406727556  19.214947170718432  0.000000
